HIERARCHY
ROOT Hips
{
 OFFSET 0.000000 0.000000 0.000000
 CHANNELS 6 Xposition Yposition Zposition Yrotation Xrotation Zrotation
 JOINT Chest
 {
  OFFSET 0.000000 9.857222 0.000240
  CHANNELS 3 Yrotation Xrotation Zrotation
  JOINT Chest2
  {
   OFFSET 0.000000 10.876940 -0.000436
   CHANNELS 3 Yrotation Xrotation Zrotation
   JOINT Chest3
   {
    OFFSET 0.000000 9.827798 0.000000
    CHANNELS 3 Yrotation Xrotation Zrotation
    JOINT Chest4
    {
     OFFSET 0.000000 9.827798 0.000000
     CHANNELS 3 Yrotation Xrotation Zrotation
     JOINT Neck
     {
      OFFSET 0.000000 13.831992 0.000000
      CHANNELS 3 Yrotation Xrotation Zrotation
      JOINT Head
      {
       OFFSET 0.000000 9.147643 -0.001036
       CHANNELS 3 Yrotation Xrotation Zrotation
       End Site
       {
        OFFSET 0.000000 17.515799 -0.000541
       }
      }
     }
     JOINT RightCollar
     {
      OFFSET -3.001579 7.717577 0.000000
      CHANNELS 3 Yrotation Xrotation Zrotation
      JOINT RightShoulder
      {
       OFFSET -14.002642 0.000000 0.000000
       CHANNELS 3 Yrotation Xrotation Zrotation
       JOINT RightElbow
       {
        OFFSET -30.053852 0.000000 0.000000
        CHANNELS 3 Yrotation Xrotation Zrotation
        JOINT RightWrist
        {
         OFFSET -24.564923 0.000000 -0.000000
         CHANNELS 3 Yrotation Xrotation Zrotation
         End Site
         {
          OFFSET -18.334355 0.000000 0.000000
         }
        }
       }
      }
     }
     JOINT LeftCollar
     {
      OFFSET 3.001579 7.717577 0.000000
      CHANNELS 3 Yrotation Xrotation Zrotation
      JOINT LeftShoulder
      {
       OFFSET 14.002642 0.000000 0.000000
       CHANNELS 3 Yrotation Xrotation Zrotation
       JOINT LeftElbow
       {
        OFFSET 30.053852 0.000000 0.000000
        CHANNELS 3 Yrotation Xrotation Zrotation
        JOINT LeftWrist
        {
         OFFSET 24.564923 0.000000 -0.000000
         CHANNELS 3 Yrotation Xrotation Zrotation
         End Site
         {
          OFFSET 18.334355 0.000000 0.000000
         }
        }
       }
      }
     }
    }
   }
  }
 }
 JOINT RightHip
 {
  OFFSET -8.003235 -0.001175 -0.000120
  CHANNELS 3 Yrotation Xrotation Zrotation
  JOINT RightKnee
  {
   OFFSET 0.000000 -41.759727 0.000113
   CHANNELS 3 Yrotation Xrotation Zrotation
   JOINT RightAnkle
   {
    OFFSET 0.000000 -40.728748 0.000159
    CHANNELS 3 Yrotation Xrotation Zrotation
    JOINT RightToe
    {
     OFFSET 0.000000 -6.515296 14.732841
     CHANNELS 3 Yrotation Xrotation Zrotation
     End Site
     {
      OFFSET 0.000000 -1.502839 6.412115
     }
    }
   }
  }
 }
 JOINT LeftHip
 {
  OFFSET 8.003235 -0.001175 -0.000120
  CHANNELS 3 Yrotation Xrotation Zrotation
  JOINT LeftKnee
  {
   OFFSET 0.000000 -41.759727 0.000113
   CHANNELS 3 Yrotation Xrotation Zrotation
   JOINT LeftAnkle
   {
    OFFSET 0.000000 -40.728748 0.000159
    CHANNELS 3 Yrotation Xrotation Zrotation
    JOINT LeftToe
    {
     OFFSET 0.000000 -6.515296 14.732841
     CHANNELS 3 Yrotation Xrotation Zrotation
     End Site
     {
      OFFSET 0.000000 -1.502839 6.412115
     }
    }
   }
  }
 }
}
MOTION
Frames: 5
Frame Time: 0.016667
0.000000 88.822259 0.000000 0.000000 -5.826342 0.000000 0.000000 11.116423 0.000000 0.000000 -5.290081 0.000000 0.000000 0.000000 0.000000 0.000000 0.000000 0.000000 0.000000 12.665069 0.000000 0.000000 0.575450 0.000000 0.000000 0.000000 0.000000 0.000000 0.000000 0.000000 2.337306 0.000000 0.000000 -2.337306 0.000000 0.000000 0.000000 0.000000 0.000000 0.000000 0.000000 0.000000 -2.337306 0.000000 0.000000 2.337306 0.000000 0.000000 0.000000 8.578828 0.000000 0.000000 1.905768 0.000000 0.000000 -4.658254 0.000000 0.000000 0.000000 0.000000 0.000000 8.578828 0.000000 0.000000 1.905768 0.000000 0.000000 -4.658254 0.000000 0.000000 0.000000 0.000000
0.314809 90.165581 17.244062 -34.088534 -18.728190 -0.466574 1.632813 3.650540 1.751304 0.946016 1.629086 0.816632 0.946016 1.629086 0.816632 0.707288 1.223085 0.609912 -8.515886 24.458046 -1.397963 -14.924472 9.446663 -0.419240 5.938038 27.270886 10.618777 40.798053 3.996758 68.684707 30.987941 -6.727036 3.395289 -5.712225 7.834044 -16.581641 -33.225904 23.620818 -25.879902 -13.868909 -1.100880 -64.542164 -35.779067 -16.112851 4.475201 8.260662 5.067257 8.263533 -12.084395 14.072083 -1.000736 2.263718 9.862547 -4.348723 1.050996 -6.107943 2.894655 -0.251247 0.304020 -0.101473 1.861241 23.477312 5.661338 -0.097949 3.002062 -3.772905 -0.815671 -6.692358 -1.236330 0.306106 -0.075026 0.131239
0.283407 90.156651 17.207715 -34.232872 -18.624522 -0.527708 1.784066 3.614133 1.820542 0.963262 1.624019 0.828708 0.963262 1.624019 0.828708 0.720197 1.219327 0.618931 -8.452410 24.440862 -1.358712 -14.820818 9.414909 -0.362544 5.986771 27.302407 10.671244 40.772437 4.015009 68.458658 30.688648 -6.993377 3.611356 -5.746946 7.823196 -16.579688 -33.230857 23.609293 -25.884791 -13.969937 -1.128411 -64.504084 -35.722514 -16.017485 4.395989 8.261051 5.015512 8.288610 -11.883903 13.934169 -0.839317 2.359170 9.944118 -4.292581 1.052031 -6.105657 2.785702 -0.269621 0.274411 -0.071767 2.057016 23.372361 5.796663 0.267946 3.041037 -3.753137 -1.042024 -6.763582 -1.283086 0.312715 -0.035280 0.141915
0.240204 90.146545 17.135661 -34.424219 -18.521774 -0.609122 1.952317 3.584937 1.914143 0.984547 1.621241 0.845881 0.984547 1.621241 0.845881 0.736119 1.217300 0.631758 -8.391510 24.423308 -1.312584 -14.723509 9.383369 -0.292943 6.053911 27.349424 10.739926 40.731730 4.024802 68.195161 30.503527 -7.373614 3.771332 -5.770569 7.809001 -16.563583 -33.251762 23.607020 -25.922529 -14.120416 -1.133382 -64.459830 -35.644517 -16.004275 4.399184 8.303838 5.025734 8.351225 -11.588719 13.777161 -0.596538 2.446800 10.050746 -4.246296 1.008413 -6.107305 2.633255 -0.269885 0.247610 -0.027648 2.404803 23.228644 6.014416 0.616380 3.132672 -3.698424 -1.252324 -6.882633 -1.391119 0.327182 0.022698 0.161306
0.188908 90.135217 17.029408 -34.663652 -18.414126 -0.680094 2.137073 3.567751 2.008222 1.007465 1.619068 0.864761 1.007465 1.619068 0.864761 0.753259 1.215733 0.645860 -8.338928 24.409098 -1.266982 -14.640907 9.358493 -0.222646 6.118212 27.410216 10.797402 40.734487 4.003432 67.906838 30.419459 -7.839321 3.849492 -5.778772 7.777616 -16.523186 -33.277656 23.587755 -25.958870 -14.259496 -1.120786 -64.443509 -35.530193 -15.888471 4.409052 8.339886 4.996674 8.476720 -11.123931 13.571947 -0.240662 2.468676 10.217072 -4.268581 0.870786 -6.120378 2.447948 -0.213295 0.216729 0.043320 2.812649 23.057516 6.248728 0.648732 3.216724 -3.650337 -1.172944 -6.999497 -1.486076 0.275282 0.076431 0.149654
